<?xml version="1.0" standalone="no"?>
<!DOCTYPE svg PUBLIC "-//W3C//DTD SVG 20010904//EN"
 "http://www.w3.org/TR/2001/REC-SVG-20010904/DTD/svg10.dtd">
<svg fill='white' version="1.0" xmlns="http://www.w3.org/2000/svg"
 width="900.000000pt" height="900.000000pt" viewBox="0 0 900.000000 900.000000" 
 preserveAspectRatio="xMidYMid meet" >

<g transform="translate(0.000000,900.000000) scale(0.100000,-0.100000)"
fill="#000000" stroke="none">
<path fill='white' d="M4077 8723 c-4 -3 -7 -240 -7 -525 l0 -518 -1250 -2 -1250 -3 326
-650 c179 -357 744 -1487 1256 -2509 l930 -1859 -33 -70 c-19 -38 -86 -175
-150 -305 l-116 -235 -801 1599 c-440 879 -1075 2146 -1410 2814 l-609 1215
-436 3 c-288 1 -437 -1 -437 -8 0 -5 58 -124 129 -262 70 -139 235 -464 366
-723 131 -258 317 -627 415 -820 177 -349 383 -755 775 -1530 114 -225 285
-563 380 -750 214 -421 481 -949 785 -1550 128 -253 310 -613 405 -800 95
-187 227 -448 293 -580 67 -132 127 -249 135 -260 14 -18 40 32 335 620 382
761 394 785 401 785 3 0 166 -321 362 -712 196 -392 361 -714 366 -715 5 -2
20 20 33 49 22 47 283 564 860 1703 103 204 312 618 465 920 153 303 362 717
465 920 103 204 310 613 460 910 150 297 348 689 440 870 92 182 313 618 490
970 178 352 359 710 402 795 43 85 78 158 78 162 0 5 -196 7 -437 6 l-436 -3
-1406 -2812 c-773 -1547 -1410 -2813 -1414 -2813 -5 0 -75 137 -157 304 l-149
303 190 379 c175 348 1970 3925 2220 4424 l108 215 -1332 5 -1332 5 -3 523 -2
522 -348 0 c-192 0 -352 -3 -355 -7z m-7 -2499 l0 -756 171 -337 c95 -185 200
-390 234 -456 34 -66 117 -228 184 -361 l123 -241 -134 -271 c-73 -149 -137
-272 -141 -272 -4 0 -54 96 -111 213 -57 116 -181 370 -276 562 -95 193 -237
481 -315 640 -78 160 -211 430 -295 600 -529 1074 -700 1425 -700 1430 0 3
284 5 630 5 l630 0 0 -756z m2126 732 c-3 -14 -92 -199 -197 -413 -105 -213
-270 -548 -366 -743 -97 -195 -251 -508 -343 -695 -92 -187 -243 -493 -336
-680 l-169 -340 -3 1435 c-1 789 0 1441 3 1448 3 9 155 12 711 12 l706 0 -6
-24z"/>


</g>

</svg>
